<?xml version="1.0" encoding="UTF-8"?>
<svg version="1.1" xmlns="http://www.w3.org/2000/svg" width="90" height="90">
<path d="M0 0 C0.89460938 -0.00128906 1.78921875 -0.00257812 2.7109375 -0.00390625 C3.65195312 -0.00003906 4.59296875 0.00382813 5.5625 0.0078125 C6.97402344 0.00201172 6.97402344 0.00201172 8.4140625 -0.00390625 C9.75597656 -0.00197266 9.75597656 -0.00197266 11.125 0 C11.95128906 0.00112793 12.77757813 0.00225586 13.62890625 0.00341797 C15.5625 0.1328125 15.5625 0.1328125 16.5625 1.1328125 C16.70365161 3.80340101 16.60497107 6.45713488 16.5625 9.1328125 C17.861875 9.1121875 19.16125 9.0915625 20.5 9.0703125 C21.85415633 9.04881796 23.21006083 9.06133051 24.5625 9.1328125 C25.5625 10.1328125 25.5625 10.1328125 25.66015625 11.98046875 C25.62760417 14.03125 25.59505208 16.08203125 25.5625 18.1328125 C27.2125 18.1328125 28.8625 18.1328125 30.5625 18.1328125 C30.541875 16.8334375 30.52125 15.5340625 30.5 14.1953125 C30.47850546 12.84115617 30.49101801 11.48525167 30.5625 10.1328125 C31.5625 9.1328125 31.5625 9.1328125 33.41015625 9.03515625 C35.4609375 9.06770833 37.51171875 9.10026042 39.5625 9.1328125 C39.541875 7.8334375 39.52125 6.5340625 39.5 5.1953125 C39.47850546 3.84115617 39.49101801 2.48525167 39.5625 1.1328125 C41.15187556 -0.45656306 42.80149846 0.00300107 45 0 C45.89460938 -0.00128906 46.78921875 -0.00257812 47.7109375 -0.00390625 C48.65195313 -0.00003906 49.59296875 0.00382813 50.5625 0.0078125 C51.97402344 0.00201172 51.97402344 0.00201172 53.4140625 -0.00390625 C54.75597656 -0.00197266 54.75597656 -0.00197266 56.125 0 C56.95128906 0.00112793 57.77757813 0.00225586 58.62890625 0.00341797 C60.5625 0.1328125 60.5625 0.1328125 61.5625 1.1328125 C61.70365161 3.80340101 61.60497107 6.45713488 61.5625 9.1328125 C62.861875 9.1121875 64.16125 9.0915625 65.5 9.0703125 C66.85415633 9.04881796 68.21006083 9.06133051 69.5625 9.1328125 C71.41964057 10.98995307 70.69298681 14.05788299 70.6953125 16.5390625 C70.69660156 17.83972656 70.69789062 19.14039063 70.69921875 20.48046875 C70.69712402 21.16125488 70.6950293 21.84204102 70.69287109 22.54345703 C70.6875224 24.62409765 70.6928168 26.70452239 70.69921875 28.78515625 C70.69792969 30.08582031 70.69664063 31.38648438 70.6953125 32.7265625 C70.69418457 33.92990234 70.69305664 35.13324219 70.69189453 36.37304688 C70.5625 39.1328125 70.5625 39.1328125 69.5625 40.1328125 C66.89191149 40.27396411 64.23817762 40.17528357 61.5625 40.1328125 C61.57410156 41.34839844 61.58570312 42.56398437 61.59765625 43.81640625 C61.60703278 45.40104014 61.61613313 46.98567568 61.625 48.5703125 C61.63337891 49.37275391 61.64175781 50.17519531 61.65039062 51.00195312 C61.6590143 53.04576471 61.6147815 55.08965152 61.5625 57.1328125 C60.5625 58.1328125 60.5625 58.1328125 58.71484375 58.23046875 C56.6640625 58.19791667 54.61328125 58.16536458 52.5625 58.1328125 C52.583125 59.4321875 52.60375 60.7315625 52.625 62.0703125 C52.64649454 63.42446883 52.63398199 64.78037333 52.5625 66.1328125 C51.5625 67.1328125 51.5625 67.1328125 49.71484375 67.23046875 C47.6640625 67.19791667 45.61328125 67.16536458 43.5625 67.1328125 C43.583125 68.4321875 43.60375 69.7315625 43.625 71.0703125 C43.64649454 72.42446883 43.63398199 73.78037333 43.5625 75.1328125 C42.5625 76.1328125 42.5625 76.1328125 40.71484375 76.23046875 C38.6640625 76.19791667 36.61328125 76.16536458 34.5625 76.1328125 C34.583125 77.4321875 34.60375 78.7315625 34.625 80.0703125 C34.64649454 81.42446883 34.63398199 82.78037333 34.5625 84.1328125 C33.5625 85.1328125 33.5625 85.1328125 31.09375 85.265625 C29.59328125 85.26175781 29.59328125 85.26175781 28.0625 85.2578125 C27.0621875 85.26039062 26.061875 85.26296875 25.03125 85.265625 C22.5625 85.1328125 22.5625 85.1328125 21.5625 84.1328125 C21.42134839 81.46222399 21.52002893 78.80849012 21.5625 76.1328125 C20.263125 76.1534375 18.96375 76.1740625 17.625 76.1953125 C16.27084367 76.21680704 14.91493917 76.20429449 13.5625 76.1328125 C12.5625 75.1328125 12.5625 75.1328125 12.46484375 73.28515625 C12.49739583 71.234375 12.52994792 69.18359375 12.5625 67.1328125 C10.6134375 67.16375 10.6134375 67.16375 8.625 67.1953125 C7.27084367 67.21680704 5.91493917 67.20429449 4.5625 67.1328125 C3.5625 66.1328125 3.5625 66.1328125 3.46484375 64.28515625 C3.49739583 62.234375 3.52994792 60.18359375 3.5625 58.1328125 C2.263125 58.1534375 0.96375 58.1740625 -0.375 58.1953125 C-1.72915633 58.21680704 -3.08506083 58.20429449 -4.4375 58.1328125 C-5.4375 57.1328125 -5.4375 57.1328125 -5.53515625 53.31640625 C-5.52848089 51.73434568 -5.51651875 50.15230091 -5.5 48.5703125 C-5.49323242 47.36084961 -5.49323242 47.36084961 -5.48632812 46.12695312 C-5.47450518 44.12887494 -5.45656914 42.13083467 -5.4375 40.1328125 C-6.736875 40.1534375 -8.03625 40.1740625 -9.375 40.1953125 C-10.72915633 40.21680704 -12.08506083 40.20429449 -13.4375 40.1328125 C-15.29464057 38.27567193 -14.56798681 35.20774201 -14.5703125 32.7265625 C-14.57160156 31.42589844 -14.57289062 30.12523437 -14.57421875 28.78515625 C-14.57212402 28.10437012 -14.5700293 27.42358398 -14.56787109 26.72216797 C-14.5625224 24.64152735 -14.5678168 22.56110261 -14.57421875 20.48046875 C-14.57292969 19.17980469 -14.57164063 17.87914062 -14.5703125 16.5390625 C-14.56918457 15.33572266 -14.56805664 14.13238281 -14.56689453 12.89257812 C-14.4375 10.1328125 -14.4375 10.1328125 -13.4375 9.1328125 C-10.76691149 8.99166089 -8.11317762 9.09034143 -5.4375 9.1328125 C-5.458125 7.8334375 -5.47875 6.5340625 -5.5 5.1953125 C-5.52149454 3.84115617 -5.50898199 2.48525167 -5.4375 1.1328125 C-3.84812444 -0.45656306 -2.19850154 0.00300107 0 0 Z " fill="#D60B44" transform="translate(16.4375,2.8671875)"/>
<path d="M0 0 C0.89460938 -0.00128906 1.78921875 -0.00257812 2.7109375 -0.00390625 C3.65195312 -0.00003906 4.59296875 0.00382813 5.5625 0.0078125 C6.97402344 0.00201172 6.97402344 0.00201172 8.4140625 -0.00390625 C9.75597656 -0.00197266 9.75597656 -0.00197266 11.125 0 C11.95128906 0.00112793 12.77757813 0.00225586 13.62890625 0.00341797 C15.5625 0.1328125 15.5625 0.1328125 16.5625 1.1328125 C16.70365161 3.80340101 16.60497107 6.45713488 16.5625 9.1328125 C17.861875 9.1121875 19.16125 9.0915625 20.5 9.0703125 C21.85415633 9.04881796 23.21006083 9.06133051 24.5625 9.1328125 C25.5625 10.1328125 25.5625 10.1328125 25.66015625 11.98046875 C25.62760417 14.03125 25.59505208 16.08203125 25.5625 18.1328125 C27.2125 18.1328125 28.8625 18.1328125 30.5625 18.1328125 C30.541875 16.8334375 30.52125 15.5340625 30.5 14.1953125 C30.47850546 12.84115617 30.49101801 11.48525167 30.5625 10.1328125 C31.5625 9.1328125 31.5625 9.1328125 33.41015625 9.03515625 C35.4609375 9.06770833 37.51171875 9.10026042 39.5625 9.1328125 C39.541875 7.8334375 39.52125 6.5340625 39.5 5.1953125 C39.47850546 3.84115617 39.49101801 2.48525167 39.5625 1.1328125 C41.15187556 -0.45656306 42.80149846 0.00300107 45 0 C45.89460938 -0.00128906 46.78921875 -0.00257812 47.7109375 -0.00390625 C48.65195313 -0.00003906 49.59296875 0.00382813 50.5625 0.0078125 C51.97402344 0.00201172 51.97402344 0.00201172 53.4140625 -0.00390625 C54.75597656 -0.00197266 54.75597656 -0.00197266 56.125 0 C56.95128906 0.00112793 57.77757813 0.00225586 58.62890625 0.00341797 C60.5625 0.1328125 60.5625 0.1328125 61.5625 1.1328125 C61.70365161 3.80340101 61.60497107 6.45713488 61.5625 9.1328125 C62.861875 9.1121875 64.16125 9.0915625 65.5 9.0703125 C66.85415633 9.04881796 68.21006083 9.06133051 69.5625 9.1328125 C71.41964057 10.98995307 70.69298681 14.05788299 70.6953125 16.5390625 C70.69660156 17.83972656 70.69789062 19.14039063 70.69921875 20.48046875 C70.69712402 21.16125488 70.6950293 21.84204102 70.69287109 22.54345703 C70.6875224 24.62409765 70.6928168 26.70452239 70.69921875 28.78515625 C70.69792969 30.08582031 70.69664063 31.38648438 70.6953125 32.7265625 C70.69418457 33.92990234 70.69305664 35.13324219 70.69189453 36.37304688 C70.5625 39.1328125 70.5625 39.1328125 69.5625 40.1328125 C66.89191149 40.27396411 64.23817762 40.17528357 61.5625 40.1328125 C61.57410156 41.34839844 61.58570312 42.56398437 61.59765625 43.81640625 C61.60703278 45.40104014 61.61613313 46.98567568 61.625 48.5703125 C61.63337891 49.37275391 61.64175781 50.17519531 61.65039062 51.00195312 C61.6590143 53.04576471 61.6147815 55.08965152 61.5625 57.1328125 C60.5625 58.1328125 60.5625 58.1328125 58.71484375 58.23046875 C56.6640625 58.19791667 54.61328125 58.16536458 52.5625 58.1328125 C52.583125 59.4321875 52.60375 60.7315625 52.625 62.0703125 C52.64649454 63.42446883 52.63398199 64.78037333 52.5625 66.1328125 C51.5625 67.1328125 51.5625 67.1328125 49.71484375 67.23046875 C47.6640625 67.19791667 45.61328125 67.16536458 43.5625 67.1328125 C43.583125 68.4321875 43.60375 69.7315625 43.625 71.0703125 C43.64649454 72.42446883 43.63398199 73.78037333 43.5625 75.1328125 C42.5625 76.1328125 42.5625 76.1328125 40.71484375 76.23046875 C38.6640625 76.19791667 36.61328125 76.16536458 34.5625 76.1328125 C34.583125 77.4321875 34.60375 78.7315625 34.625 80.0703125 C34.64649454 81.42446883 34.63398199 82.78037333 34.5625 84.1328125 C33.5625 85.1328125 33.5625 85.1328125 31.09375 85.265625 C29.59328125 85.26175781 29.59328125 85.26175781 28.0625 85.2578125 C27.0621875 85.26039062 26.061875 85.26296875 25.03125 85.265625 C22.5625 85.1328125 22.5625 85.1328125 21.5625 84.1328125 C21.42134839 81.46222399 21.52002893 78.80849012 21.5625 76.1328125 C20.263125 76.1534375 18.96375 76.1740625 17.625 76.1953125 C16.27084367 76.21680704 14.91493917 76.20429449 13.5625 76.1328125 C12.5625 75.1328125 12.5625 75.1328125 12.46484375 73.28515625 C12.49739583 71.234375 12.52994792 69.18359375 12.5625 67.1328125 C10.6134375 67.16375 10.6134375 67.16375 8.625 67.1953125 C7.27084367 67.21680704 5.91493917 67.20429449 4.5625 67.1328125 C3.5625 66.1328125 3.5625 66.1328125 3.46484375 64.28515625 C3.49739583 62.234375 3.52994792 60.18359375 3.5625 58.1328125 C2.263125 58.1534375 0.96375 58.1740625 -0.375 58.1953125 C-1.72915633 58.21680704 -3.08506083 58.20429449 -4.4375 58.1328125 C-5.4375 57.1328125 -5.4375 57.1328125 -5.53515625 53.31640625 C-5.52848089 51.73434568 -5.51651875 50.15230091 -5.5 48.5703125 C-5.49323242 47.36084961 -5.49323242 47.36084961 -5.48632812 46.12695312 C-5.47450518 44.12887494 -5.45656914 42.13083467 -5.4375 40.1328125 C-6.736875 40.1534375 -8.03625 40.1740625 -9.375 40.1953125 C-10.72915633 40.21680704 -12.08506083 40.20429449 -13.4375 40.1328125 C-15.29464057 38.27567193 -14.56798681 35.20774201 -14.5703125 32.7265625 C-14.57160156 31.42589844 -14.57289062 30.12523437 -14.57421875 28.78515625 C-14.57212402 28.10437012 -14.5700293 27.42358398 -14.56787109 26.72216797 C-14.5625224 24.64152735 -14.5678168 22.56110261 -14.57421875 20.48046875 C-14.57292969 19.17980469 -14.57164063 17.87914062 -14.5703125 16.5390625 C-14.56918457 15.33572266 -14.56805664 14.13238281 -14.56689453 12.89257812 C-14.4375 10.1328125 -14.4375 10.1328125 -13.4375 9.1328125 C-10.76691149 8.99166089 -8.11317762 9.09034143 -5.4375 9.1328125 C-5.458125 7.8334375 -5.47875 6.5340625 -5.5 5.1953125 C-5.52149454 3.84115617 -5.50898199 2.48525167 -5.4375 1.1328125 C-3.84812444 -0.45656306 -2.19850154 0.00300107 0 0 Z M-3.4375 2.1328125 C-3.4375 5.1028125 -3.4375 8.0728125 -3.4375 11.1328125 C-6.4075 11.1328125 -9.3775 11.1328125 -12.4375 11.1328125 C-12.4375 20.0428125 -12.4375 28.9528125 -12.4375 38.1328125 C-9.4675 38.1328125 -6.4975 38.1328125 -3.4375 38.1328125 C-3.4375 44.0728125 -3.4375 50.0128125 -3.4375 56.1328125 C-0.4675 56.1328125 2.5025 56.1328125 5.5625 56.1328125 C5.5625 59.1028125 5.5625 62.0728125 5.5625 65.1328125 C8.5325 65.1328125 11.5025 65.1328125 14.5625 65.1328125 C14.5625 68.1028125 14.5625 71.0728125 14.5625 74.1328125 C17.5325 74.1328125 20.5025 74.1328125 23.5625 74.1328125 C23.5625 77.1028125 23.5625 80.0728125 23.5625 83.1328125 C26.5325 83.1328125 29.5025 83.1328125 32.5625 83.1328125 C32.5625 80.1628125 32.5625 77.1928125 32.5625 74.1328125 C35.5325 74.1328125 38.5025 74.1328125 41.5625 74.1328125 C41.5625 71.1628125 41.5625 68.1928125 41.5625 65.1328125 C44.5325 65.1328125 47.5025 65.1328125 50.5625 65.1328125 C50.5625 62.1628125 50.5625 59.1928125 50.5625 56.1328125 C53.5325 56.1328125 56.5025 56.1328125 59.5625 56.1328125 C59.5625 50.1928125 59.5625 44.2528125 59.5625 38.1328125 C62.5325 38.1328125 65.5025 38.1328125 68.5625 38.1328125 C68.5625 29.2228125 68.5625 20.3128125 68.5625 11.1328125 C65.5925 11.1328125 62.6225 11.1328125 59.5625 11.1328125 C59.5625 8.1628125 59.5625 5.1928125 59.5625 2.1328125 C53.6225 2.1328125 47.6825 2.1328125 41.5625 2.1328125 C41.5625 5.1028125 41.5625 8.0728125 41.5625 11.1328125 C38.5925 11.1328125 35.6225 11.1328125 32.5625 11.1328125 C32.5625 14.1028125 32.5625 17.0728125 32.5625 20.1328125 C29.5925 20.1328125 26.6225 20.1328125 23.5625 20.1328125 C23.5625 17.1628125 23.5625 14.1928125 23.5625 11.1328125 C20.5925 11.1328125 17.6225 11.1328125 14.5625 11.1328125 C14.5625 8.1628125 14.5625 5.1928125 14.5625 2.1328125 C8.6225 2.1328125 2.6825 2.1328125 -3.4375 2.1328125 Z " fill="#990030" transform="translate(16.4375,2.8671875)"/>
<path d="M0 0 C2.97 0 5.94 0 9 0 C9 5.94 9 11.88 9 18 C6.03 18 3.06 18 0 18 C0 12.06 0 6.12 0 0 Z " fill="#FFA3B1" transform="translate(58,32)"/>
<path d="M0 0 C2.97 0 5.94 0 9 0 C9 5.94 9 11.88 9 18 C6.03 18 3.06 18 0 18 C0 12.06 0 6.12 0 0 Z " fill="#FFFFFF" transform="translate(67,14)"/>
<path d="M0 0 C2.97 0 5.94 0 9 0 C9 2.97 9 5.94 9 9 C6.03 9 3.06 9 0 9 C0 6.03 0 3.06 0 0 Z " fill="#FFFFFF" transform="translate(58,32)"/>
</svg>
